<svg width="16" height="16" viewBox="0 0 16 16" fill="none" xmlns="http://www.w3.org/2000/svg">
<path d="M8 11.333V14.6663Z" fill="#EF4444"/>
<path d="M8 11.333V14.6663" stroke="#EF4444" stroke-width="1.33333" stroke-linecap="round" stroke-linejoin="round"/>
<path d="M5.99992 7.17301C5.99979 7.42106 5.93046 7.66416 5.79973 7.87498C5.669 8.08579 5.48206 8.25596 5.25992 8.36634L4.07325 8.96634C3.85111 9.07673 3.66417 9.24689 3.53344 9.4577C3.40271 9.66852 3.33338 9.91162 3.33325 10.1597V10.6663C3.33325 10.8432 3.40349 11.0127 3.52851 11.1377C3.65354 11.2628 3.82311 11.333 3.99992 11.333H11.9999C12.1767 11.333 12.3463 11.2628 12.4713 11.1377C12.5963 11.0127 12.6666 10.8432 12.6666 10.6663V10.1597C12.6665 9.91162 12.5971 9.66852 12.4664 9.4577C12.3357 9.24689 12.1487 9.07673 11.9266 8.96634L10.7399 8.36634C10.5178 8.25596 10.3308 8.08579 10.2001 7.87498C10.0694 7.66416 10.0001 7.42106 9.99992 7.17301V4.66634C9.99992 4.48953 10.0702 4.31996 10.1952 4.19494C10.3202 4.06991 10.4898 3.99967 10.6666 3.99967C11.0202 3.99967 11.3593 3.8592 11.6094 3.60915C11.8594 3.3591 11.9999 3.01996 11.9999 2.66634C11.9999 2.31272 11.8594 1.97358 11.6094 1.72353C11.3593 1.47348 11.0202 1.33301 10.6666 1.33301H5.33325C4.97963 1.33301 4.64049 1.47348 4.39044 1.72353C4.14039 1.97358 3.99992 2.31272 3.99992 2.66634C3.99992 3.01996 4.14039 3.3591 4.39044 3.60915C4.64049 3.8592 4.97963 3.99967 5.33325 3.99967C5.51006 3.99967 5.67963 4.06991 5.80466 4.19494C5.92968 4.31996 5.99992 4.48953 5.99992 4.66634V7.17301Z" fill="#EF4444" stroke="#EF4444" stroke-width="1.33333" stroke-linecap="round" stroke-linejoin="round"/>
</svg>
