<svg width="16" height="16" viewBox="0 0 16 16" fill="none" xmlns="http://www.w3.org/2000/svg">
<path d="M10.1333 2C10.485 2.00501 10.8205 2.14878 11.0667 2.4L13.6 4.93333C13.8512 5.17951 13.995 5.51497 14 5.86667V12.6667C14 13.0203 13.8595 13.3594 13.6095 13.6095C13.3594 13.8595 13.0203 14 12.6667 14H3.33333C2.97971 14 2.64057 13.8595 2.39052 13.6095C2.14048 13.3594 2 13.0203 2 12.6667V3.33333C2 2.97971 2.14048 2.64057 2.39052 2.39052C2.64057 2.14048 2.97971 2 3.33333 2H10.1333Z" stroke="white" stroke-width="1.33333" stroke-linecap="round" stroke-linejoin="round"/>
<path d="M11.3332 14.0003V9.33366C11.3332 9.15685 11.2629 8.98728 11.1379 8.86225C11.0129 8.73723 10.8433 8.66699 10.6665 8.66699H5.33317C5.15636 8.66699 4.98679 8.73723 4.86177 8.86225C4.73674 8.98728 4.6665 9.15685 4.6665 9.33366V14.0003" stroke="white" stroke-width="1.33333" stroke-linecap="round" stroke-linejoin="round"/>
<path d="M4.6665 2V4.66667C4.6665 4.84348 4.73674 5.01305 4.86177 5.13807C4.98679 5.2631 5.15636 5.33333 5.33317 5.33333H9.99984" stroke="white" stroke-width="1.33333" stroke-linecap="round" stroke-linejoin="round"/>
</svg>
